<svg xmlns="http://www.w3.org/2000/svg" width="384.5" height="512.109">
  <path fill="#2962ff" d="M23.392.108c93.553.29 170.228-.437 263.78.089L384.5 97.485l-.5 391.231c-.017 12.96-10.433 23.392-23.392 23.392H23.392A23.34 23.34 0 0 1 0 488.716V23.5A23.34 23.34 0 0 1 23.392.108Z"/>
  <path fill="#fff" d="M65.962 242.058H43v-64.292h133.177v64.292h-22.962l38.914 123.208 39.156-123.208h-22.962v-64.292H341.5v64.292h-22.962l-59.7 188.285H125.662Z"/>
  <path fill="#fff" fill-opacity=".704" d="m283.423 4.143 97.327 97.288-73 1.123c-20 0-25-8-25-25z"/>
</svg>