<svg xmlns="http://www.w3.org/2000/svg" width="384.117" height="512.044">
  <path fill="#2962ff" d="M23.392.044 222.649 0l161.468 161.53L384 488.653c-.005 12.96-10.433 23.392-23.392 23.392H23.392A23.34 23.34 0 0 1 0 488.652V23.436A23.343 23.343 0 0 1 23.392.044Z"/>
  <path fill="#fff" d="M56.535 274.729H31.883V205.7h142.985v69.028h-24.653l41.78 132.282 42.04-132.282h-24.653V205.7h142.985v69.028h-24.652L263.618 476.88H120.632Z"/>
  <path fill="#fff" d="m222.69 14.39 146.92 147.112-109.74 1.19c-29.796 0-37.245-11.919-37.245-37.245z"/>
</svg>